<svg xmlns="http://www.w3.org/2000/svg" xmlns:svg="http://www.w3.org/2000/svg" xmlns:xlink="http://www.w3.org/1999/xlink" id="svg2" version="1.0" viewBox="0 0 38 36"><defs id="defs4"><linearGradient id="linearGradient1552"><stop id="stop1554" offset="0" style="stop-color:#f9cc84"/><stop id="stop1556" offset="1" style="stop-color:#fed27f"/></linearGradient><radialGradient id="radialGradient1428" cx="-18.3" cy=".405" r="17.1" gradientTransform="matrix(-0.1316,1.117,-1.0576,-0.12462,33.357,39.585)" gradientUnits="userSpaceOnUse"><stop id="stop1427" offset="0" style="stop-color:#f0d81f"/><stop id="stop1429" offset="1" style="stop-color:#f07d0a"/></radialGradient><linearGradient id="linearGradient1427" x1="36.312" x2="30.302" y1="47.962" y2="16.238" gradientTransform="matrix(0,1,1,0,0.038,0.0077)" gradientUnits="userSpaceOnUse" xlink:href="#linearGradient1552"/><linearGradient id="linearGradient1435" x1="32" x2="27.857" y1="16.238" y2="47.922" gradientTransform="matrix(0,1,1,0,0,-0.02652)" gradientUnits="userSpaceOnUse" xlink:href="#linearGradient1552"/><linearGradient id="linearGradient1440" x1="32" x2="27.857" y1="16.238" y2="47.922" gradientTransform="matrix(0,1,1,0,0,0)" gradientUnits="userSpaceOnUse"><stop id="stop1520" offset="0" style="stop-color:#f3ac39;stop-opacity:.62876"/><stop id="stop1522" offset="1" style="stop-color:#fcba94;stop-opacity:.78261"/></linearGradient></defs><g id="layer1"><g id="g1428" transform="matrix(1.0240796,0,0,0.8453878,-13.335935,-11.696272)"><path id="path2125" d="m 14,22 c 0,-1 1,-1 1,-1 l 17,0 c 0.049,-1 0,-5 0,-5 0.009,-0.447 0.109,-0.846 0.523,-1.016 0.414,-0.17 0.889,-0.077 1.209,0.235 l 16,16 c 0.422,0.435 0.422,1.127 0,1.562 l -16,16 c -0.32,0.312 -0.795,0.405 -1.209,0.235 C 32.109,48.846 32.009,48.447 32,48 l 0,-5 -17.049,0 c 0,0 -1,0 -1,-1 C 13.951,36 14,28 14,22 Z" style="fill:#a54005"/><path id="path3636" d="m 41.781,15.156 c -5.903,0.002 -13.643,0.061 -19.562,0.063 l 0,16.781 c 10e-4,0.649 -0.508,1.186 -1.157,1.219 -1.093,0.053 -4.057,0.008 -4.624,0 L 32,48.781 47.531,33.219 43,33.219 c -0.673,0 -1.219,-0.546 -1.219,-1.219 l 0,-16.844 z" transform="matrix(0,1,1,0,0,0)" style="fill:url(#radialGradient1428)"/><path id="path1511" d="M 17,41 C 15.969,40.094 16,24 17,23 18,22 31.11,23.122 32,23.094 35,23 33,19 35,20 c 3,2 12,11 12,12 0,1 -9,10 -12,12 -2,1 0,-3 -3,-3.094 C 31.065,40.877 17.969,42.094 17,41 Z" style="fill:url(#linearGradient1440)"/><path id="path1548" d="m 35,19.973 c 3,2 12,11 12,12 0,1 -5.459,7.027 -8.502,9.027 0,-0.973 3.502,-4 3.502,-9 0,-4 -9,-9 -7,-12.027 z" style="fill:url(#linearGradient1435)"/><path id="path1558" d="m 16.276,32.035 c 0.004,-4.262 0.25,-8.531 0.75,-9.031 0.698,-0.699 6.176,-0.4 10.188,-0.157 C 30,23 30,23 27,24 16.521,27.493 18.684,40.082 19.057,41.41 18.05,41.347 17.231,41.235 17.026,41.004 16.511,40.55 16.272,36.297 16.276,32.035 Z" style="fill:url(#linearGradient1427)"/></g></g><metadata id="metadata24"/></svg>