<svg xmlns="http://www.w3.org/2000/svg" xmlns:xlink="http://www.w3.org/1999/xlink" id="Layer_1" width="127.142" height="162.022" x="0" y="0" enable-background="new 0 0 127.142 162.022" version="1.1" viewBox="0 0 127.142 162.022" xml:space="preserve"><linearGradient id="SVGID_1_" x1="72.249" x2="72.249" y1="139.791" y2="161.476" gradientUnits="userSpaceOnUse"><stop offset="0" style="stop-color:#070707;stop-opacity:0"/><stop offset="1" style="stop-color:#000;stop-opacity:.15"/></linearGradient><polygon fill="url(#SVGID_1_)" points="17.356 137.512 49.667 162.022 127.142 137.512"/><linearGradient id="SVGID_2_" x1="4.736" x2="95.594" y1="24.823" y2="115.682" gradientUnits="userSpaceOnUse"><stop offset="0" style="stop-color:#00ccc6"/><stop offset="1" style="stop-color:#009bbf"/></linearGradient><path fill="url(#SVGID_2_)" d="M100.92,50.46C100.92,22.592,78.328,0,50.46,0S0,22.592,0,50.46C0,74.287,15.174,85.64,23.547,96	c16.655,20.608,22.003,40.594,26.323,65.407c4.387-24.606,9.089-44.799,26.328-64.687C84.569,87.062,100.92,72.644,100.92,50.46z"/><g><path fill="#FFF" d="M57.44,61.213h-12.9l-3.18,9.3h-8.22l15.12-42.3h6.06l15.12,42.3H60.8L57.44,61.213z M46.641,54.612h9 l-3.12-9.359l-1.26-6.601h-0.3l-1.26,6.66L46.641,54.612z"/></g></svg>